# xmcd CD database file
#
# Track frame offsets:
#	187
#	15937
#	31290
#	47172
#	62567
#	76717
#	92400
#	107377
#	123227
#	137190
#	152460
#	167030
#	180780
#	195270
#	209280
#
# Disc length: 2984 seconds
#
# Revision: 0
# Processed by: cddbd v1.5PL3 Copyright (c) Steve Scherf et al.
# Submitted via: CDex 1.50beta10
#
DISCID=a20ba60f
DTITLE=Big Bill Broonzy - Unissued Test Pressings
DYEAR=1992
DGENRE=Blues
TTITLE0=My Big Moment
TTITLE1=Dying Day Blues
TTITLE2=Cherry Hill
TTITLE3=Bull Cow Blues
TTITLE4=Black Mare Blues
TTITLE5=Don't Do Me That Way
TTITLE6=The Son Gonna Shine In My Back Door Someday
TTITLE7=WPA Blues
TTITLE8=Little Bug
TTITLE9=It's A Low Down Dirty Shame
TTITLE10=Somebody's Got To Go
TTITLE11=Detroit Special
TTITLE12=Married Life Is A Pain
TTITLE13=Unemployed Stomp
TTITLE14=Shake 'em On Down
EXTD=YEAR: 1992
EXTT0=
EXTT1=
EXTT2=
EXTT3=
EXTT4=
EXTT5=
EXTT6=
EXTT7=
EXTT8=
EXTT9=
EXTT10=
EXTT11=
EXTT12=
EXTT13=
EXTT14=
PLAYORDER=
